<svg width="49" height="73" viewBox="0 0 49 73" fill="none" xmlns="http://www.w3.org/2000/svg">
<path d="M45.0007 41.5187C45.0023 41.5187 45.0039 41.5195 45.0056 41.5195C43.7182 35.7361 38.8136 31.3162 32.7837 30.7656C32.7291 33.2866 28.9923 35.3211 24.391 35.3211C19.789 35.3211 16.0529 33.2866 15.9984 30.7656C9.97012 31.317 5.06389 35.7369 3.77734 41.5195C3.77975 41.5195 3.78216 41.5187 3.78457 41.5187H45.0007Z" fill="#333333"/>
<path d="M16.4572 16.2411L13.9049 15.1367C13.8472 15.6094 13.811 16.0902 13.811 16.579C13.811 16.8125 13.8199 17.0437 13.8327 17.2732C13.8528 17.6087 13.8841 17.941 13.9322 18.2684C13.9395 18.3687 13.9483 18.4675 13.9579 18.5662C14.6249 26.1153 19.0415 31.9486 24.3916 31.9486C29.7416 31.9486 34.1583 26.1153 34.8252 18.5662C34.8349 18.4667 34.8421 18.3679 34.8501 18.2684C34.8983 17.941 34.9296 17.6087 34.9488 17.2732C34.9625 17.0429 34.9705 16.8125 34.9705 16.579C34.9705 16.0902 34.9344 15.6094 34.8766 15.1367L32.3236 16.2419C32.326 17.8583 32.0772 19.3399 32.0772 19.3407C32.6294 18.9562 33.1334 18.7556 33.5451 18.6529C32.9375 25.2469 29.0715 30.3321 24.39 30.3321C19.7085 30.3321 15.8432 25.2469 15.2356 18.6521C15.6474 18.7548 16.153 18.9546 16.7036 19.3399C16.7036 19.3399 16.4548 17.8583 16.4572 16.2411Z" fill="#333333"/>
<path d="M9.74369 7.32282L10.7317 7.75061L10.6482 8.41435C10.2702 8.47855 9.98126 8.80762 9.98126 9.2049C9.98126 9.56205 10.214 9.86543 10.5375 9.96816L9.93712 18.3729C9.91224 18.7236 9.98286 19.2838 10.0936 19.6169L10.58 21.0784C10.6354 21.2453 10.7084 21.3288 10.7814 21.3288C10.8545 21.3288 10.9275 21.2453 10.9837 21.0784L11.4709 19.6169C11.5816 19.2838 11.6523 18.7236 11.6274 18.3729L11.0286 9.96816C11.3497 9.86463 11.5848 9.56285 11.5848 9.2049C11.5848 8.80762 11.2959 8.47855 10.9163 8.41435L10.8392 7.79716L13.1218 8.78434L14.239 9.2683V13.5822L17.9317 15.1794L22.7874 17.2822C23.2296 17.4732 23.8115 17.5687 24.3926 17.5687C24.9744 17.5687 25.5563 17.4732 25.9977 17.2822L30.8534 15.1794L34.5469 13.5814V9.2675L35.6641 8.78354L39.0406 7.32122C39.9251 6.93919 39.9251 6.31397 39.0406 5.93194L25.9985 0.285722C25.5555 0.0955081 24.9744 0 24.3926 0C23.8107 0 23.2288 0.095508 22.7874 0.287327L9.74449 5.93354C8.86004 6.31558 8.86004 6.94079 9.74369 7.32282Z" fill="#333333"/>
<path d="M43.0766 70.6753H5.70967C5.27948 70.6753 4.93115 71.0244 4.93115 71.4546C4.93115 71.884 5.28028 72.2331 5.70967 72.2331H43.0774C43.5068 72.2331 43.8559 71.884 43.8559 71.4546C43.8551 71.0236 43.506 70.6753 43.0766 70.6753Z" fill="#333333"/>
<path d="M45.006 42.5586C45.0044 42.5586 45.0028 42.5586 45.0012 42.5586H3.78581C3.78341 42.5586 3.781 42.5586 3.77859 42.5586C1.69427 42.5626 0 44.2593 0 46.3444V46.4327L0.0152485 46.5202L3.43589 66.361C3.48725 68.4044 5.16547 70.0513 7.22009 70.0513H41.5661C43.6215 70.0513 45.2989 68.4044 45.3511 66.361L48.7709 46.5202L48.787 46.4327V46.3444C48.787 44.2585 47.0903 42.561 45.006 42.5586ZM24.3931 57.5903C23.4926 57.5903 22.763 56.8631 22.763 55.961C22.763 55.0621 23.4934 54.3342 24.3931 54.3342C25.2928 54.3342 26.0215 55.0621 26.0215 55.961C26.0215 56.8631 25.2928 57.5903 24.3931 57.5903Z" fill="#333333"/>
</svg>
